<?xml version="1.0" encoding="utf-8"?>
<!-- Generator: Adobe Illustrator 19.2.1, SVG Export Plug-In . SVG Version: 6.00 Build 0)  -->
<svg version="1.1" id="Layer_1" xmlns="http://www.w3.org/2000/svg" xmlns:xlink="http://www.w3.org/1999/xlink" x="0px" y="0px"
	 viewBox="0 0 1289.1 244.7" style="enable-background:new 0 0 1289.1 244.7;" xml:space="preserve">
<style type="text/css">
	.st0{fill:#DB4949;}
	.st1{fill:#E6E6E6;}
	.st2{fill:#76CDCE;}
	.st3{fill:#CCCCCC;}
	.st4{fill:#999999;}
	.st5{fill:#666666;}
	.st6{fill:#F7CF52;}
	.st7{fill:#DB481B;}
	.st8{fill:#96E0DE;}
	.st9{fill:#FFFFFF;}
</style>
<g>
	<g>
		<path class="st0" d="M83.9,78.2c0,22.1-40.1,74.4-40.1,74.4S3.7,100.3,3.7,78.2s18-40.1,40.1-40.1S83.9,56.1,83.9,78.2z"/>
		<circle class="st1" cx="43.8" cy="78.2" r="22.5"/>
	</g>
	<g>
		<path class="st0" d="M1285.4,76.7c0,22.1-40.1,74.4-40.1,74.4s-40.1-52.3-40.1-74.4s17.9-40.1,40.1-40.1S1285.4,54.6,1285.4,76.7z
			"/>
		<circle class="st1" cx="1245.3" cy="76.7" r="22.5"/>
	</g>
	<g>
		<path d="M43.8,156.4c1.2,0,2.3-0.5,3-1.5c0.1-0.1,10.2-13.4,20.2-29.2c13.7-21.6,20.6-37.6,20.6-47.5c0-24.2-19.7-43.8-43.8-43.8
			S0,54.1,0,78.2c0,9.9,6.9,25.9,20.6,47.5c10,15.8,20.1,29.1,20.2,29.2C41.5,155.8,42.6,156.4,43.8,156.4z M7.5,78.2
			c0-20,16.3-36.3,36.3-36.3s36.3,16.3,36.3,36.3c0,15.7-24,51.5-36.3,68.2C31.4,129.7,7.5,93.9,7.5,78.2z"/>
		<path d="M70.1,78.2c0-14.5-11.8-26.3-26.3-26.3S17.5,63.7,17.5,78.2s11.8,26.3,26.3,26.3S70.1,92.7,70.1,78.2z M25,78.2
			c0-10.4,8.4-18.8,18.8-18.8s18.8,8.4,18.8,18.8S54.2,97,43.8,97S25,88.6,25,78.2z"/>
		<path d="M47.5,66.9c0-2.1-1.7-3.7-3.7-3.7c-8.3,0-15.1,6.8-15.1,15.1c0,2.1,1.7,3.7,3.7,3.7s3.7-1.7,3.7-3.7
			c0-4.2,3.4-7.6,7.6-7.6C45.9,70.6,47.5,69,47.5,66.9z"/>
		<path d="M1245.3,32.9c-24.2,0-43.8,19.7-43.8,43.8c0,9.9,6.9,25.9,20.6,47.5c10,15.8,20.1,29.1,20.2,29.2c0.7,0.9,1.8,1.5,3,1.5
			s2.3-0.5,3-1.5c0.1-0.1,10.2-13.4,20.2-29.2c13.7-21.6,20.6-37.6,20.6-47.5C1289.1,52.6,1269.5,32.9,1245.3,32.9z M1245.3,144.9
			c-12.4-16.8-36.3-52.5-36.3-68.2c0-20,16.3-36.3,36.3-36.3s36.3,16.3,36.3,36.3C1281.7,92.4,1257.7,128.2,1245.3,144.9z"/>
		<path d="M1245.3,50.4c-14.5,0-26.3,11.8-26.3,26.3s11.8,26.3,26.3,26.3s26.3-11.8,26.3-26.3S1259.8,50.4,1245.3,50.4z
			 M1245.3,95.5c-10.4,0-18.8-8.4-18.8-18.8s8.4-18.8,18.8-18.8s18.8,8.4,18.8,18.8S1255.7,95.5,1245.3,95.5z"/>
		<path d="M282.1,200.4h-27c-5.5,0-10,4.5-10,10s4.5,10,10,10h27c5.5,0,10-4.5,10-10S287.6,200.4,282.1,200.4z"/>
		<g>
			<circle class="st0" cx="43.8" cy="210.4" r="24"/>
			<path d="M188.1,200.4H76.6c-4.3-13.9-17.2-24-32.5-24c-18.7,0-34,15.3-34,34s15.3,34,34,34c15.3,0,28.2-10.1,32.5-24h111.5
				c5.5,0,10-4.5,10-10S193.6,200.4,188.1,200.4z M44.1,224.4c-7.7,0-14-6.3-14-14s6.3-14,14-14s14,6.3,14,14S51.8,224.4,44.1,224.4
				z"/>
		</g>
	</g>
</g>
<g>
	<circle class="st0" cx="1245.3" cy="210.7" r="24"/>
	<path d="M1101.1,220.7h111.5c4.3,13.9,17.2,24,32.5,24c18.7,0,34-15.3,34-34s-15.3-34-34-34c-15.3,0-28.2,10.1-32.5,24h-111.5
		c-5.5,0-10,4.5-10,10S1095.5,220.7,1101.1,220.7z M1245.1,196.7c7.7,0,14,6.3,14,14c0,7.7-6.3,14-14,14s-14-6.3-14-14
		S1237.3,196.7,1245.1,196.7z"/>
</g>
<path d="M376.1,200.4h-27c-5.5,0-10,4.5-10,10s4.5,10,10,10h27c5.5,0,10-4.5,10-10S381.6,200.4,376.1,200.4z"/>
<path d="M470.1,200.4h-27c-5.5,0-10,4.5-10,10s4.5,10,10,10h27c5.5,0,10-4.5,10-10S475.6,200.4,470.1,200.4z"/>
<path d="M564.1,200.4h-27c-5.5,0-10,4.5-10,10s4.5,10,10,10h27c5.5,0,10-4.5,10-10S569.6,200.4,564.1,200.4z"/>
<path d="M658.1,200.4h-27c-5.5,0-10,4.5-10,10s4.5,10,10,10h27c5.5,0,10-4.5,10-10S663.6,200.4,658.1,200.4z"/>
<path d="M752.1,200.4h-27c-5.5,0-10,4.5-10,10s4.5,10,10,10h27c5.5,0,10-4.5,10-10S757.6,200.4,752.1,200.4z"/>
<path d="M846.1,200.4h-27c-5.5,0-10,4.5-10,10s4.5,10,10,10h27c5.5,0,10-4.5,10-10S851.6,200.4,846.1,200.4z"/>
<path d="M940.1,200.4h-27c-5.5,0-10,4.5-10,10s4.5,10,10,10h27c5.5,0,10-4.5,10-10S945.6,200.4,940.1,200.4z"/>
<path d="M1034.1,200.4h-27c-5.5,0-10,4.5-10,10s4.5,10,10,10h27c5.5,0,10-4.5,10-10S1039.6,200.4,1034.1,200.4z"/>
<g>
	<polygon class="st2" points="789.3,111.7 694.2,111.7 694.2,40.4 767.7,40.4 	"/>
	<path class="st3" d="M803.4,166.1L803.4,166.1c0,4-3.3,7.3-7.3,7.3h-15.6c0-0.6,0.1-1.3,0.1-1.9c0-4.4-0.8-8.7-2.4-12.7h17.9
		C800.2,158.8,803.4,162,803.4,166.1z"/>
	<path class="st4" d="M762.7,33.1h-79.4v140.2h27.4c0-0.6-0.1-1.3-0.1-1.9c0-19.3,15.7-35,35-35c13.5,0,25.6,7.5,31.5,19.7
		c0.4,0.9,0.8,1.8,1.2,2.7h17.9v-62c0-1.8-0.4-3.7-1-5.4l-20.3-50.1C772.8,36.4,768,33.1,762.7,33.1z M698.1,96.9V48h63.4l19.8,48.9
		H698.1z"/>
	<path class="st5" d="M716.8,173.3c0-0.6-0.1-1.3-0.1-1.9c0-16,12.9-28.9,28.9-28.9c11.4,0,21.3,6.6,26,16.2
		c1.9,3.8,2.9,8.1,2.9,12.7c0,0.6,0,1.3-0.1,1.9c-1,15.1-13.5,27.1-28.9,27.1C730.3,200.4,717.7,188.4,716.8,173.3z M757.5,171.5
		c0-6.5-5.3-11.9-11.9-11.9s-11.9,5.3-11.9,11.9c0,6.5,5.3,11.9,11.9,11.9S757.5,178,757.5,171.5z"/>
	<path class="st1" d="M745.6,159.6c6.5,0,11.9,5.3,11.9,11.9c0,6.5-5.3,11.9-11.9,11.9s-11.9-5.3-11.9-11.9
		C733.7,164.9,739.1,159.6,745.6,159.6z"/>
	<path class="st1" d="M455.2,159.6c6.5,0,11.9,5.3,11.9,11.9c0,6.5-5.3,11.9-11.9,11.9c-6.5,0-11.9-5.3-11.9-11.9
		C443.3,164.9,448.7,159.6,455.2,159.6z"/>
	<path class="st3" d="M403,170.2c0,0.6,0,1.3,0.1,1.9h-16.2c-4,0-7.3-3.3-7.3-7.3l0,0c0-4,3.3-7.3,7.3-7.3h18.5
		C403.8,161.5,403,165.8,403,170.2z"/>
	<path class="st6" d="M786.3,140.9h-4.8c-2.9,0-5.3-2.4-5.3-5.3v-12.3c0-2.9,2.4-5.3,5.3-5.3h4.8V140.9z"/>
	<path class="st7" d="M392.5,149.1v23.1h50.8c0-0.2,0-0.4,0-0.6c0-6.6,5.3-11.9,11.9-11.9c6.6,0,11.9,5.3,11.9,11.9
		c0,0.2,0,0.4,0,0.6h216.2v-23.1H392.5z"/>
	<polygon class="st8" points="704.1,48 753.6,96.9 781.3,96.9 761.5,48 	"/>
	<path class="st5" d="M484.1,171.5c0,0.6,0,1.3-0.1,1.9c-1,15.1-13.5,27-28.9,27c-15.3,0-27.9-11.9-28.9-27c0-0.6-0.1-1.3-0.1-1.9
		c0-4.5,1-8.8,2.9-12.7c4.7-9.6,14.6-16.2,26-16.2C471.2,142.5,484.1,155.5,484.1,171.5z M467.1,171.5c0-6.5-5.3-11.9-11.9-11.9
		c-6.5,0-11.9,5.3-11.9,11.9c0,6.5,5.3,11.9,11.9,11.9C461.7,183.3,467.1,178,467.1,171.5z"/>
</g>
<g>
	<path d="M657.8,94.2c-3.2-7.5-10.2-13.1-18.9-14.1l-32.8-3.8l-17.5-28.5c-4.5-7.3-12.4-11.7-21-11.7H511
		c-14.7,0-27.7,9.8-31.6,24.1l-0.4,1.6c-1.2,4.5-3.6,8.5-6.8,11.7c-3.2,3.2-7.2,5.6-11.7,6.9c-4.9,1.4-8.2,5.8-8.2,10.9V123
		l17.9-4.2c0.4-0.9,0.8-1.7,1.3-2.6c4.5-7.7,12.8-12.5,21.7-12.5c8.9,0,17.2,4.8,21.7,12.5c0.5,0.8,0.9,1.7,1.3,2.6H592
		c0.4-0.9,0.8-1.7,1.3-2.5c4.5-7.8,12.8-12.6,21.7-12.6c8.9,0,17.2,4.8,21.7,12.5c0.5,0.8,0.9,1.7,1.3,2.6h19.9l0.1,0l1.5-12.8
		c0.1-0.5,0.1-1,0.1-1.6C659.8,100.9,659.1,97.4,657.8,94.2z"/>
	<path class="st3" d="M663.7,124.4L663.7,124.4c0,3.1-2.5,5.6-5.6,5.6H640c0-0.4,0-0.9,0-1.3c0-3.4-0.7-6.8-2.1-9.9l20.1,0
		C661.1,118.8,663.7,121.3,663.7,124.4z"/>
	<path class="st5" d="M634.9,128.7c0,0.4,0,0.9,0,1.3c-0.7,10.4-9.3,18.6-19.9,18.6c-10.6,0-19.2-8.2-19.9-18.6c0-0.4,0-0.9,0-1.3
		c0-3.6,1-7,2.6-9.9c3.4-6,9.9-10,17.3-10c7.4,0,13.8,4,17.3,10C633.9,121.7,634.9,125.1,634.9,128.7z M623.2,128.7
		c0-4.5-3.7-8.2-8.2-8.2c-4.5,0-8.2,3.7-8.2,8.2c0,4.5,3.7,8.2,8.2,8.2C619.5,136.9,623.2,133.2,623.2,128.7z"/>
	<path class="st1" d="M615,120.6c4.5,0,8.2,3.7,8.2,8.2c0,4.5-3.7,8.2-8.2,8.2c-4.5,0-8.2-3.7-8.2-8.2
		C606.8,124.2,610.5,120.6,615,120.6z"/>
	<path class="st3" d="M590,128.7c0,0.4,0,0.9,0,1.3h-71.9c0-0.4,0-0.9,0-1.3c0-3.4-0.7-6.8-2.1-9.9H592
		C590.7,121.9,590,125.3,590,128.7z"/>
	<path class="st2" d="M502.4,49.3v27.2h-15.6c0,0,1.8-7.4,3-11.5l0.4-1.6c0.2-0.9,0.5-1.7,0.8-2.5C493.2,55.6,497.4,51.5,502.4,49.3
		z"/>
	<path class="st2" d="M541.6,47.5v29h-32.2V47.5c0.5,0,1-0.1,1.6-0.1L541.6,47.5L541.6,47.5z"/>
	<path class="st2" d="M592.8,76.4h-44.3v-29h19c4.6,0,9,2.4,11.4,6.4L592.8,76.4z"/>
	<path class="st5" d="M513,130c-0.7,10.4-9.3,18.6-19.9,18.6c-10.6,0-19.2-8.2-19.9-18.6c0-0.4,0-0.9,0-1.3c0-3.6,1-7,2.6-9.9
		c3.4-6,9.9-10,17.3-10c7.4,0,13.8,4,17.3,10c1.7,2.9,2.7,6.3,2.7,9.9C513,129.2,513,129.6,513,130z M501.3,128.7
		c0-4.5-3.7-8.2-8.2-8.2c-4.5,0-8.2,3.7-8.2,8.2c0,4.5,3.7,8.2,8.2,8.2C497.6,136.9,501.3,133.2,501.3,128.7z"/>
	<path class="st1" d="M493.1,120.6c4.5,0,8.2,3.7,8.2,8.2c0,4.5-3.7,8.2-8.2,8.2c-4.5,0-8.2-3.7-8.2-8.2
		C484.9,124.2,488.6,120.6,493.1,120.6z"/>
	<path class="st3" d="M468.1,128.7c0,0.4,0,0.9,0,1.3H454c-3.1,0-5.6-2.5-5.6-5.6l0,0c0-3.1,2.5-5.6,5.6-5.6h16.1
		C468.8,121.9,468.1,125.3,468.1,128.7z"/>
	<path class="st3" d="M567.7,91.7h-7.3c-1.5,0-2.8-1.3-2.8-2.8c0-1.5,1.3-2.8,2.8-2.8h7.3c1.5,0,2.8,1.3,2.8,2.8
		C570.5,90.5,569.3,91.7,567.7,91.7z"/>
	<path class="st3" d="M517.4,91.7H510c-1.5,0-2.8-1.3-2.8-2.8c0-1.5,1.3-2.8,2.8-2.8h7.3c1.5,0,2.8,1.3,2.8,2.8
		C520.1,90.5,518.9,91.7,517.4,91.7z"/>
	<path class="st9" d="M659.6,104.5H654c-5.7,0-10.2-4.6-10.2-10.2l0,0h14C659.3,97.6,660,100.9,659.6,104.5z"/>
	<polygon class="st8" points="541.6,47.5 541.6,76.4 538.3,76.4 509.4,47.5 	"/>
	<path class="st8" d="M592.8,76.4h-15.3l-29-29h19c4.6,0,9,2.4,11.4,6.4L592.8,76.4z"/>
	<path class="st8" d="M502.4,49.3v22.9l-11.3-11.3C493.2,55.6,497.4,51.5,502.4,49.3z"/>
</g>
</svg>
