<?xml version="1.0" encoding="utf-8"?>
<!-- Generator: Adobe Illustrator 19.2.1, SVG Export Plug-In . SVG Version: 6.00 Build 0)  -->
<svg version="1.1" id="Слой_1" xmlns="http://www.w3.org/2000/svg" xmlns:xlink="http://www.w3.org/1999/xlink" x="0px" y="0px"
	 viewBox="0 0 65 65" style="enable-background:new 0 0 65 65;" xml:space="preserve">
<style type="text/css">
	.st0{fill:#D22856;}
</style>
<path class="st0" d="M50.7,29.4h-21c0,2.5,0,5.2,0,7.7c6.9,0,13.8,0,20.6,0c-3.8,6.6-7.8,13-11.6,19.6c-1.9,0-3.7,0-5.7,0
	c-1.8,0-4.2-0.2-7.1-1.1c-3.2-1-5.6-2.4-6.5-3c-2.2-1.5-3.7-3-4.3-3.6c-0.4-0.4-1.7-1.9-2.9-3.9C9.4,40.1,9,35.3,9,34
	c-0.3-6.2,1.7-10.8,2.4-12c0.6-1.2,2-3.8,4.7-6.5c1.7-1.6,3.2-2.6,3.8-3.1c0.5-0.3,2.3-1.4,5-2.4c2.6-0.9,4.8-1.2,5.6-1.3
	c1.4-0.2,3.3-0.2,5.5,0c2.8,0.3,5.1,1.1,6.2,1.6c3,1.2,5.2,2.8,6.5,3.9c2.3,2,3.8,4,4.9,5.6c3.1,0,6.2,0,9.3,0
	c-0.6-1.4-1.6-3.3-3-5.4c-3-4.1-6-6.6-7.9-8c-3.6-2.6-6.9-3.8-8.5-4.4c-1.4-0.6-5.3-1.7-10.2-1.7c-10,0.1-17.3,5-18.5,5.8
	c-1.7,1.2-8.3,6.1-11.6,15.1c-0.6,1.6-2,5.9-2,11.3c0,3.6,0.6,6.6,1.1,8.3c0.6,2.3,2.6,9.6,9.4,15.7c0.9,0.8,4.4,3.9,10.1,6.1
	c4.7,1.7,8.8,2.1,11.4,2.1c3.1,0,6.4,0,9.5,0c7-11.8,14.1-23.6,21-35.4C59.4,29.4,55,29.4,50.7,29.4z"/>
</svg>
