<?xml version="1.0" encoding="utf-8"?>
<!-- Generator: Adobe Illustrator 19.2.1, SVG Export Plug-In . SVG Version: 6.00 Build 0)  -->
<svg version="1.1" id="Слой_1" xmlns="http://www.w3.org/2000/svg" xmlns:xlink="http://www.w3.org/1999/xlink" x="0px" y="0px"
	 viewBox="0 0 400 550" style="enable-background:new 0 0 400 550;" xml:space="preserve">
<style type="text/css">
	.st0{fill:#FFFFFF;}
	.st1{fill:#1572B6;}
	.st2{fill:#33A9DC;}
	.st3{fill:#EBEBEB;}
</style>
<g id="Layer_1">
	<g>
		<g>
			<path class="st0" d="M285.1,80.6h-24.9l25.9,27.9v13.3h-53.3v-15.5h25.9l-25.9-27.9V65h52.3V80.6L285.1,80.6z M222.2,80.6h-24.9
				l25.9,27.9v13.3h-53.3v-15.5h25.9l-25.9-27.9V65h52.3V80.6L222.2,80.6z M159.9,81.2H133v24.3h26.9v16.2h-46V65h46V81.2z"/>
		</g>
		<polygon class="st1" points="77.3,451.3 50,147.6 350,147.6 322.7,451.2 199.8,485 		"/>
		<polygon class="st2" points="200,459.2 299.3,431.9 322.6,172.4 200,172.4 		"/>
		<g>
			<polygon class="st0" points="200,282.4 249.7,282.4 253.1,244.3 200,244.3 200,207 200.1,207 294.2,207 293.3,217 284,319.7 
				200,319.7 			"/>
			<polygon class="st3" points="200.2,379.2 200.1,379.2 158.2,368 155.6,338.3 135.2,338.3 117.9,338.3 123.1,396.8 200.1,418 
				200.2,417.9 			"/>
			<polygon class="st0" points="246.5,318.1 242,368 200.1,379.2 200.1,417.9 277.1,396.8 277.7,390.5 284.2,318.1 			"/>
			<polygon class="st3" points="200.1,207 200.1,230.2 200.1,244.2 200.1,244.3 109.5,244.3 109.5,244.3 109.4,244.3 108.7,235.9 
				106.9,217 106.1,207 			"/>
			<polygon class="st3" points="200,282.4 200,305.6 200,319.6 200,319.7 158.8,319.7 158.8,319.7 158.7,319.7 158,311.3 
				156.2,292.4 155.3,282.4 			"/>
		</g>
	</g>
</g>
<g id="Слой_2">
</g>
</svg>
