<?xml version="1.0" encoding="utf-8"?>
<!-- Generator: Adobe Illustrator 19.2.1, SVG Export Plug-In . SVG Version: 6.00 Build 0)  -->
<svg version="1.1" id="Слой_1" xmlns="http://www.w3.org/2000/svg" xmlns:xlink="http://www.w3.org/1999/xlink" x="0px" y="0px"
	 viewBox="0 0 400 550" style="enable-background:new 0 0 400 550;" xml:space="preserve">
<style type="text/css">
	.st0{fill:#E44F26;}
	.st1{fill:#F1662A;}
	.st2{fill:#EBEBEB;}
	.st3{fill:#FFFFFF;}
</style>
<g id="Layer_1">
	<g>
		<polygon class="st0" points="77.3,451.3 50,147.5 350,147.5 322.7,451.2 199.8,485 		"/>
		<polygon class="st1" points="200,459.2 299.3,431.9 322.6,172.4 200,172.4 		"/>
		<polygon class="st2" points="200,285 150.3,285 146.9,246.9 200,246.9 200,209.6 199.9,209.6 105.8,209.6 106.7,219.6 116,322.3 
			200,322.3 		"/>
		<polygon class="st2" points="200,381.8 199.8,381.8 158,370.6 155.3,340.9 135,340.9 117.6,340.9 122.9,399.4 199.8,420.6 
			200,420.5 		"/>
		<path class="st3" d="M77.9,65H97v18.7h17.5V65h19.1v56.6h-19.1v-19H97v19H77.9V65L77.9,65z"/>
		<path class="st3" d="M158.6,83.8h-16.8V65h52.7v18.8h-16.8v37.9h-19.1L158.6,83.8L158.6,83.8z"/>
		<path class="st3" d="M202.9,65h19.9L235,84.9L247.3,65h19.9v56.6h-19v-28L235,113.7h-0.3l-13.1-20.1v28.1h-18.7V65L202.9,65z"/>
		<path class="st3" d="M276.7,65h19.1v37.9h26.8v18.7h-45.9V65L276.7,65z"/>
		<polygon class="st3" points="199.9,285 199.9,322.3 246.1,322.3 241.8,370.6 199.9,381.8 199.9,420.6 276.9,399.4 277.4,393.1 
			286.3,295 287.2,285 277,285 		"/>
		<polygon class="st3" points="199.9,209.6 199.9,232.8 199.9,246.8 199.9,246.9 290.5,246.9 290.5,246.9 290.6,246.9 291.3,238.5 
			293.1,219.6 294,209.6 		"/>
	</g>
</g>
<g id="Слой_2">
</g>
</svg>
