<?xml version="1.0" encoding="utf-8"?>
<!-- Generator: Adobe Illustrator 19.2.1, SVG Export Plug-In . SVG Version: 6.00 Build 0)  -->
<svg version="1.1" id="Слой_1" xmlns="http://www.w3.org/2000/svg" xmlns:xlink="http://www.w3.org/1999/xlink" x="0px" y="0px"
	 viewBox="0 0 400 550" style="enable-background:new 0 0 400 550;" xml:space="preserve">
<style type="text/css">
	.st0{fill:#E5A229;}
	.st1{fill:#F1BE21;}
	.st2{fill:#FFFFFF;}
	.st3{fill:#EBEAEA;}
</style>
<g id="Layer_1">
	<g>
		<polygon class="st0" points="350,145.8 200,145.8 200,145.8 50,145.8 78.1,449.1 200,483.5 200,483.5 200,483.5 200,483.5 
			200,483.5 321.8,449.1 		"/>
		<polygon class="st1" points="200,170.5 200,457.8 200,457.8 298.7,429.9 322.7,170.5 		"/>
		<polygon class="st2" points="278.5,207.7 126.7,207.7 116.2,321.3 116.4,320.6 245.3,320.6 241.1,368.6 200,380.4 158.2,368.4 
			155.7,339.3 117.8,339.3 123.2,397.4 200,419.1 276.8,397.4 287.3,283.4 150.5,283.4 152.2,245.4 247.2,245.4 248.6,267.2 
			286.9,267.2 		"/>
		<g>
			<path class="st3" d="M200,207.7h-73.3l-10.6,113.6l0.2-0.7H200v-37.1h-44.2l1.7-38H200V207.7z M155.7,339.3h-37.9l5.4,58.1
				L200,419v-38.7l-41.8-12L155.7,339.3z"/>
		</g>
		<g>
			<polygon class="st2" points="170.8,101 144.1,101 144.1,120.1 170.8,120.1 185.1,120.1 189.9,120.1 189.9,63.5 170.8,63.5 			"/>
			<path class="st2" d="M255.9,63.7h-46.5c0,0,0,10,0,19.8c6.2,6.2,9.5,9.2,18.5,18.1c-5.3,0-18.5,0-18.5,0v18.1h46.5v-18.1
				l-18.6-18.1h18.6V63.7z"/>
		</g>
	</g>
</g>
<g id="Слой_2">
</g>
</svg>
